{"asset": {"version": "2.0", "generator": "citadel"}, "scene": 0, "scenes": [{"nodes": [0, 1, 2, 3, 4, 5, 6, 7, 8, 9, 10, 11, 12, 13, 14, 15, 16, 17, 18, 19, 20, 21, 22, 23, 24, 25, 26, 27, 28, 29, 30, 31, 32, 33, 34, 35, 36, 37, 38, 39, 40, 41, 42, 43, 44, 45, 46, 47, 48, 49, 50, 51, 52, 53, 54, 55, 56, 57, 58, 59, 60, 61, 62, 63, 64, 65, 66, 67, 68, 69, 70, 71, 72, 73, 74, 75, 76, 77, 78, 79, 80, 81, 82, 83, 84, 85]}], "nodes": [{"name": "PurpleVolumetric Rect Area Light (3)", "mesh": 0, "translation": [-120.30000305175781, 0.6000000238418579, 1.7000000476837158], "rotation": [-0.7071068286895752, -0.0, -0.0, 0.7071068286895752], "scale": [1.0, 1.0, 1.0], "extras": {"path": "lighting/Purple scene/Volumetric Rect Area Light (1)/PurpleVolumetric Rect Area Light (3)", "hidden": "renderer-disabled"}}, {"name": "dayVolumetric Rect Area Light (17)", "mesh": 1, "translation": [264.79998779296875, 0.6000000238418579, 67.9000015258789], "rotation": [-0.7071068286895752, -0.0, -0.0, 0.7071068286895752], "scale": [1.0, 1.0, 1.0], "extras": {"path": "lighting/day/Volumetric Rect Area Light (1)/dayVolumetric Rect Area Light (17)"}}, {"name": "Volumetric Rect Area Light (12)", "mesh": 2, "translation": [179.3000030517578, 0.6000000238418579, 244.89999389648438], "rotation": [-0.7071068286895752, -0.0, -0.0, 0.7071068286895752], "scale": [1.0, 1.0, 1.0], "extras": {"path": "lighting/night/Volumetric Rect Area Light/Volumetric Rect Area Light (12)", "hidden": "renderer-disabled"}}, {"name": "Volumetric Spot Light", "mesh": 3, "translation": [-159.10000610351562, 49.29999923706055, 33.099998474121094], "rotation": [-0.3314135670661926, -0.4619397819042206, -0.19134171307086945, 0.8001031875610352], "scale": [1.0, 1.0, 1.0], "extras": {"path": "lighting/night/Volumetric Spot Light (2)/Volumetric Spot Light", "hidden": "renderer-disabled"}}, {"name": "Volumetric Rect Area Light (3)", "mesh": 4, "translation": [-125.4000015258789, 0.6000000238418579, -4.900000095367432], "rotation": [-0.7071068286895752, -0.0, -0.0, 0.7071068286895752], "scale": [1.0, 1.0, 1.0], "extras": {"path": "lighting/night/Volumetric Rect Area Light/Volumetric Rect Area Light (3)", "hidden": "renderer-disabled"}}, {"name": "Volumetric Rect Area Light (1)", "mesh": 5, "translation": [74.0999984741211, 9.699999809265137, 52.70000076293945], "rotation": [-0.7071068286895752, -0.0, -0.0, 0.7071068286895752], "scale": [1.0, 1.0, 1.0], "extras": {"path": "lighting/night/Volumetric Rect Area Light/Volumetric Rect Area Light (1)", "hidden": "renderer-disabled"}}, {"name": "City_Specialbuildings_Group_6", "mesh": 6, "translation": [-0.0, 0.0, 0.0], "rotation": [0.0, -0.0, -0.0, 1.0], "scale": [1.0, 1.0, 1.0], "extras": {"path": "Scenemodel/City_Architecture/City_Specialbuildings_Group_6/City_Specialbuildings_Group_6"}}, {"name": "PurpleVolumetric Rect Area Light (1)", "mesh": 7, "translation": [76.5, 9.699999809265137, 57.400001525878906], "rotation": [-0.7071068286895752, -0.0, -0.0, 0.7071068286895752], "scale": [1.0, 1.0, 1.0], "extras": {"path": "lighting/Purple scene/Volumetric Rect Area Light (1)/PurpleVolumetric Rect Area Light (1)", "hidden": "renderer-disabled"}}, {"name": "dayVolumetric Rect Area Light (8)", "mesh": 8, "translation": [22.149999618530273, 2.119999885559082, -181.8000030517578], "rotation": [-0.7071068286895752, -0.0, -0.0, 0.7071068286895752], "scale": [1.0, 1.0, 1.0], "extras": {"path": "lighting/day/Volumetric Rect Area Light (1)/dayVolumetric Rect Area Light (8)"}}, {"name": "Volumetric Rect Area Light (9)", "mesh": 9, "translation": [145.1999969482422, 0.6000000238418579, -212.6999969482422], "rotation": [-0.7071068286895752, -0.0, -0.0, 0.7071068286895752], "scale": [1.0, 1.0, 1.0], "extras": {"path": "lighting/night/Volumetric Rect Area Light/Volumetric Rect Area Light (9)", "hidden": "renderer-disabled"}}, {"name": "PurpleVolumetric Rect Area Light (13)", "mesh": 10, "translation": [-171.10000610351562, 0.6000000238418579, 185.1999969482422], "rotation": [-0.7071068286895752, -0.0, -0.0, 0.7071068286895752], "scale": [1.0, 1.0, 1.0], "extras": {"path": "lighting/Purple scene/Volumetric Rect Area Light (1)/PurpleVolumetric Rect Area Light (13)", "hidden": "renderer-disabled"}}, {"name": "PurpleVolumetric Rect Area Light (10)", "mesh": 11, "translation": [2.5, 11.34000015258789, 96.19999694824219], "rotation": [-0.7071068286895752, -0.0, -0.0, 0.7071068286895752], "scale": [1.0, 1.0, 1.0], "extras": {"path": "lighting/Purple scene/Volumetric Rect Area Light (1)/PurpleVolumetric Rect Area Light (10)", "hidden": "renderer-disabled"}}, {"name": "PurpleVolumetric Rect Area Light (2)", "mesh": 12, "translation": [135.6999969482422, 10.0, 126.12999725341797], "rotation": [-0.7071068286895752, -0.0, -0.0, 0.7071068286895752], "scale": [1.0, 1.0, 1.0], "extras": {"path": "lighting/Purple scene/Volumetric Rect Area Light (1)/PurpleVolumetric Rect Area Light (2)", "hidden": "renderer-disabled"}}, {"name": "Volumetric Rect Area Light (11)", "mesh": 13, "translation": [266.0, -1.5, -91.5], "rotation": [-0.7071068286895752, -0.0, -0.0, 0.7071068286895752], "scale": [1.0, 1.0, 1.0], "extras": {"path": "lighting/night/Volumetric Rect Area Light/Volumetric Rect Area Light (11)", "hidden": "renderer-disabled"}}, {"name": "City_Specialbuildings_Group_4", "mesh": 14, "translation": [-0.0, 0.0, 0.0], "rotation": [0.0, -0.0, -0.0, 1.0], "scale": [1.0, 1.0, 1.0], "extras": {"path": "Scenemodel/City_Architecture/City_Specialbuildings_Group_4/City_Specialbuildings_Group_4"}}, {"name": "PurpleVolumetric Rect Area Light (16)", "mesh": 15, "translation": [221.0, 0.6000000238418579, 1.2999999523162842], "rotation": [-0.7071068286895752, -0.0, -0.0, 0.7071068286895752], "scale": [1.0, 1.0, 1.0], "extras": {"path": "lighting/Purple scene/Volumetric Rect Area Light (1)/PurpleVolumetric Rect Area Light (16)", "hidden": "renderer-disabled"}}, {"name": "Volumetric Spot Light", "mesh": 16, "translation": [-131.00999450683594, 144.19000244140625, -3.0899999141693115], "rotation": [-0.3826834261417389, -0.0, -0.0, 0.9238795638084412], "scale": [1.0, 1.0, 1.0], "extras": {"path": "lighting/night/Volumetric Spot Light/Volumetric Spot Light", "hidden": "renderer-disabled"}}, {"name": "Volumetric Rect Area Light (7)", "mesh": 17, "translation": [-88.0999984741211, 0.6000000238418579, -137.10000610351562], "rotation": [-0.7071068286895752, -0.0, -0.0, 0.7071068286895752], "scale": [1.0, 1.0, 1.0], "extras": {"path": "lighting/night/Volumetric Rect Area Light/Volumetric Rect Area Light (7)", "hidden": "renderer-disabled"}}, {"name": "PurpleVolumetric Rect Area Light", "mesh": 18, "translation": [61.599998474121094, -7.300000190734863, 217.39999389648438], "rotation": [-0.7071068286895752, -0.0, -0.0, 0.7071068286895752], "scale": [1.0, 1.0, 1.0], "extras": {"path": "lighting/Purple scene/Volumetric Rect Area Light (1)/PurpleVolumetric Rect Area Light", "hidden": "renderer-disabled"}}, {"name": "PurpleVolumetric Rect Area Light (5)", "mesh": 19, "translation": [-256.0, -3.4000000953674316, 109.0999984741211], "rotation": [-0.7071068286895752, -0.0, -0.0, 0.7071068286895752], "scale": [1.0, 1.0, 1.0], "extras": {"path": "lighting/Purple scene/Volumetric Rect Area Light (1)/PurpleVolumetric Rect Area Light (5)", "hidden": "renderer-disabled"}}, {"name": "dayVolumetric Rect Area Light (10)", "mesh": 20, "translation": [2.5, 11.34000015258789, 96.19999694824219], "rotation": [-0.7071068286895752, -0.0, -0.0, 0.7071068286895752], "scale": [1.0, 1.0, 1.0], "extras": {"path": "lighting/day/Volumetric Rect Area Light (1)/dayVolumetric Rect Area Light (10)"}}, {"name": "Volumetric Rect Area Light (5)", "mesh": 21, "translation": [-258.0, 10.300000190734863, 111.5999984741211], "rotation": [-0.7071068286895752, -0.0, -0.0, 0.7071068286895752], "scale": [1.0, 1.0, 1.0], "extras": {"path": "lighting/night/Volumetric Rect Area Light/Volumetric Rect Area Light (5)", "hidden": "renderer-disabled"}}, {"name": "dayVolumetric Rect Area Light (9)", "mesh": 22, "translation": [145.1999969482422, -7.300000190734863, -212.6999969482422], "rotation": [-0.7071068286895752, -0.0, -0.0, 0.7071068286895752], "scale": [1.0, 1.0, 1.0], "extras": {"path": "lighting/day/Volumetric Rect Area Light (1)/dayVolumetric Rect Area Light (9)"}}, {"name": "dayVolumetric Rect Area Light (12)", "mesh": 23, "translation": [180.0, 0.6000000238418579, 244.89999389648438], "rotation": [-0.7071068286895752, -0.0, -0.0, 0.7071068286895752], "scale": [1.0, 1.0, 1.0], "extras": {"path": "lighting/day/Volumetric Rect Area Light (1)/dayVolumetric Rect Area Light (12)"}}, {"name": "City_Specialbuildings_Group_3", "mesh": 24, "translation": [-0.0, 0.0, 0.0], "rotation": [0.0, -0.0, -0.0, 1.0], "scale": [1.0, 1.0, 1.0], "extras": {"path": "Scenemodel/City_Architecture/City_Specialbuildings_Group_3/City_Specialbuildings_Group_3"}}, {"name": "PurpleVolumetric Rect Area Light (15)", "mesh": 25, "translation": [-332.20001220703125, -7.199999809265137, -95.69999694824219], "rotation": [-0.7071068286895752, -0.0, -0.0, 0.7071068286895752], "scale": [1.0, 1.0, 1.0], "extras": {"path": "lighting/Purple scene/Volumetric Rect Area Light (1)/PurpleVolumetric Rect Area Light (15)", "hidden": "renderer-disabled"}}, {"name": "City_Specialbuildings_Group_2", "mesh": 26, "translation": [-0.0, 0.0, 0.0], "rotation": [0.0, -0.0, -0.0, 1.0], "scale": [1.0, 1.0, 1.0], "extras": {"path": "Scenemodel/City_Architecture/City_Specialbuildings_Group_2/City_Specialbuildings_Group_2"}}, {"name": "City_mountainrange", "mesh": 27, "translation": [-0.0, 0.0, 0.0], "rotation": [0.0, -0.0, -0.0, 1.0], "scale": [1.0, 1.0, 1.0], "extras": {"path": "Scenemodel/City_mountainrange_Group/City_mountainrange"}}, {"name": "dayVolumetric Rect Area Light (5)", "mesh": 28, "translation": [-258.0, 7.699999809265137, 111.5999984741211], "rotation": [-0.7071068286895752, -0.0, -0.0, 0.7071068286895752], "scale": [1.0, 1.0, 1.0], "extras": {"path": "lighting/day/Volumetric Rect Area Light (1)/dayVolumetric Rect Area Light (5)"}}, {"name": "Volumetric Rect Area Light (16)", "mesh": 29, "translation": [221.0, 0.6000000238418579, 1.2999999523162842], "rotation": [-0.7071068286895752, -0.0, -0.0, 0.7071068286895752], "scale": [1.0, 1.0, 1.0], "extras": {"path": "lighting/night/Volumetric Rect Area Light/Volumetric Rect Area Light (16)", "hidden": "renderer-disabled"}}, {"name": "dayVolumetric Rect Area Light (1)", "mesh": 30, "translation": [74.0999984741211, 9.699999809265137, 52.70000076293945], "rotation": [-0.7071068286895752, -0.0, -0.0, 0.7071068286895752], "scale": [1.0, 1.0, 1.0], "extras": {"path": "lighting/day/Volumetric Rect Area Light (1)/dayVolumetric Rect Area Light (1)"}}, {"name": "Volumetric Rect Area Light (2)", "mesh": 31, "translation": [135.6999969482422, 10.0, 126.12999725341797], "rotation": [-0.7071068286895752, -0.0, -0.0, 0.7071068286895752], "scale": [1.0, 1.0, 1.0], "extras": {"path": "lighting/night/Volumetric Rect Area Light/Volumetric Rect Area Light (2)", "hidden": "renderer-disabled"}}, {"name": "Volumetric Rect Area Light (6)", "mesh": 32, "translation": [220.1999969482422, 0.6000000238418579, 147.6999969482422], "rotation": [-0.7071068286895752, -0.0, -0.0, 0.7071068286895752], "scale": [1.0, 1.0, 1.0], "extras": {"path": "lighting/night/Volumetric Rect Area Light/Volumetric Rect Area Light (6)", "hidden": "renderer-disabled"}}, {"name": "dayVolumetric Rect Area Light (11)", "mesh": 33, "translation": [268.70001220703125, -1.5, -91.5], "rotation": [-0.7071068286895752, -0.0, -0.0, 0.7071068286895752], "scale": [1.0, 1.0, 1.0], "extras": {"path": "lighting/day/Volumetric Rect Area Light (1)/dayVolumetric Rect Area Light (11)"}}, {"name": "dayVolumetric Rect Area Light (14)", "mesh": 34, "translation": [-314.5, 10.899999618530273, 13.5], "rotation": [-0.7071068286895752, -0.0, -0.0, 0.7071068286895752], "scale": [1.0, 1.0, 1.0], "extras": {"path": "lighting/day/Volumetric Rect Area Light (1)/dayVolumetric Rect Area Light (14)"}}, {"name": "Volumetric Rect Area Light (14)", "mesh": 35, "translation": [-314.5, 10.899999618530273, 10.699999809265137], "rotation": [-0.7071068286895752, -0.0, -0.0, 0.7071068286895752], "scale": [1.0, 1.0, 1.0], "extras": {"path": "lighting/night/Volumetric Rect Area Light/Volumetric Rect Area Light (14)", "hidden": "renderer-disabled"}}, {"name": "PurpleVolumetric Rect Area Light (8)", "mesh": 36, "translation": [23.0, -0.1599999964237213, -180.5], "rotation": [-0.7071068286895752, -0.0, -0.0, 0.7071068286895752], "scale": [1.0, 1.0, 1.0], "extras": {"path": "lighting/Purple scene/Volumetric Rect Area Light (1)/PurpleVolumetric Rect Area Light (8)", "hidden": "renderer-disabled"}}, {"name": "PurpleVolumetric Rect Area Light (6)", "mesh": 37, "translation": [220.1999969482422, 0.6000000238418579, 147.6999969482422], "rotation": [-0.7071068286895752, -0.0, -0.0, 0.7071068286895752], "scale": [1.0, 1.0, 1.0], "extras": {"path": "lighting/Purple scene/Volumetric Rect Area Light (1)/PurpleVolumetric Rect Area Light (6)", "hidden": "renderer-disabled"}}, {"name": "Volumetric Spot Light", "mesh": 38, "translation": [-97.5999984741211, 48.79999923706055, 22.600000381469727], "rotation": [-0.27059805393218994, 0.6532815098762512, 0.27059805393218994, 0.6532815098762512], "scale": [1.0, 1.0, 1.0], "extras": {"path": "lighting/night/Volumetric Spot Light (1)/Volumetric Spot Light", "hidden": "renderer-disabled"}}, {"name": "PurpleVolumetric Rect Area Light (12)", "mesh": 39, "translation": [182.0, -1.100000023841858, 249.89999389648438], "rotation": [-0.7071068286895752, -0.0, -0.0, 0.7071068286895752], "scale": [1.0, 1.0, 1.0], "extras": {"path": "lighting/Purple scene/Volumetric Rect Area Light (1)/PurpleVolumetric Rect Area Light (12)", "hidden": "renderer-disabled"}}, {"name": "Volumetric Rect Area Light (13)", "mesh": 40, "translation": [-173.3000030517578, 0.6000000238418579, 185.1999969482422], "rotation": [-0.7071068286895752, -0.0, -0.0, 0.7071068286895752], "scale": [1.0, 1.0, 1.0], "extras": {"path": "lighting/night/Volumetric Rect Area Light/Volumetric Rect Area Light (13)", "hidden": "renderer-disabled"}}, {"name": "PurpleVolumetric Rect Area Light (17)", "mesh": 41, "translation": [266.6000061035156, -6.599999904632568, 72.5], "rotation": [-0.7071068286895752, -0.0, -0.0, 0.7071068286895752], "scale": [1.0, 1.0, 1.0], "extras": {"path": "lighting/Purple scene/Volumetric Rect Area Light (1)/PurpleVolumetric Rect Area Light (17)", "hidden": "renderer-disabled"}}, {"name": "stone", "mesh": 42, "translation": [-0.0, 0.0, 0.0], "rotation": [0.0, -0.0, -0.0, 1.0], "scale": [1.0, 1.0, 1.0], "extras": {"path": "Scenemodel/stone_Group/stone"}}, {"name": "Volumetric Rect Area Light (10)", "mesh": 43, "translation": [2.5, 11.34000015258789, 96.19999694824219], "rotation": [-0.7071068286895752, -0.0, -0.0, 0.7071068286895752], "scale": [1.0, 1.0, 1.0], "extras": {"path": "lighting/night/Volumetric Rect Area Light/Volumetric Rect Area Light (10)", "hidden": "renderer-disabled"}}, {"name": "PurpleVolumetric Rect Area Light (14)", "mesh": 44, "translation": [-312.70001220703125, 10.899999618530273, 14.399999618530273], "rotation": [-0.7071068286895752, -0.0, -0.0, 0.7071068286895752], "scale": [1.0, 1.0, 1.0], "extras": {"path": "lighting/Purple scene/Volumetric Rect Area Light (1)/PurpleVolumetric Rect Area Light (14)", "hidden": "renderer-disabled"}}, {"name": "dayVolumetric Rect Area Light (7)", "mesh": 45, "translation": [-88.0999984741211, 0.6000000238418579, -137.10000610351562], "rotation": [-0.7071068286895752, -0.0, -0.0, 0.7071068286895752], "scale": [1.0, 1.0, 1.0], "extras": {"path": "lighting/day/Volumetric Rect Area Light (1)/dayVolumetric Rect Area Light (7)"}}, {"name": "dayVolumetric Rect Area Light", "mesh": 46, "translation": [60.79999923706055, -7.300000190734863, 217.8000030517578], "rotation": [-0.7071068286895752, -0.0, -0.0, 0.7071068286895752], "scale": [1.0, 1.0, 1.0], "extras": {"path": "lighting/day/Volumetric Rect Area Light (1)/dayVolumetric Rect Area Light"}}, {"name": "City_Specialbuildings_Group_6", "mesh": 47, "translation": [-0.0, 0.0, 0.0], "rotation": [0.0, -0.0, -0.0, 1.0], "scale": [1.0, 1.0, 1.0], "extras": {"path": "Scenemodel/City_Architecture/City_Specialbuildings_Group_6/City_Specialbuildings_Group_6"}}, {"name": "Volumetric Rect Area Light (8)", "mesh": 48, "translation": [22.149999618530273, 2.119999885559082, -181.8000030517578], "rotation": [-0.7071068286895752, -0.0, -0.0, 0.7071068286895752], "scale": [1.0, 1.0, 1.0], "extras": {"path": "lighting/night/Volumetric Rect Area Light/Volumetric Rect Area Light (8)", "hidden": "renderer-disabled"}}, {"name": "dayVolumetric Rect Area Light (13)", "mesh": 49, "translation": [-173.3000030517578, 0.6000000238418579, 185.1999969482422], "rotation": [-0.7071068286895752, -0.0, -0.0, 0.7071068286895752], "scale": [1.0, 1.0, 1.0], "extras": {"path": "lighting/day/Volumetric Rect Area Light (1)/dayVolumetric Rect Area Light (13)"}}, {"name": "PurpleVolumetric Rect Area Light (7)", "mesh": 50, "translation": [-88.37000274658203, 0.6000000238418579, -134.36000061035156], "rotation": [-0.7071068286895752, -0.0, -0.0, 0.7071068286895752], "scale": [1.0, 1.0, 1.0], "extras": {"path": "lighting/Purple scene/Volumetric Rect Area Light (1)/PurpleVolumetric Rect Area Light (7)", "hidden": "renderer-disabled"}}, {"name": "Volumetric Rect Area Light (17)", "mesh": 51, "translation": [264.79998779296875, 0.6000000238418579, 67.9000015258789], "rotation": [-0.7071068286895752, -0.0, -0.0, 0.7071068286895752], "scale": [1.0, 1.0, 1.0], "extras": {"path": "lighting/night/Volumetric Rect Area Light/Volumetric Rect Area Light (17)", "hidden": "renderer-disabled"}}, {"name": "Volumetric Rect Area Light", "mesh": 52, "translation": [61.599998474121094, -7.300000190734863, 217.39999389648438], "rotation": [-0.7071068286895752, -0.0, -0.0, 0.7071068286895752], "scale": [1.0, 1.0, 1.0], "extras": {"path": "lighting/night/Volumetric Rect Area Light/Volumetric Rect Area Light", "hidden": "renderer-disabled"}}, {"name": "dayVolumetric Rect Area Light (15)", "mesh": 53, "translation": [-335.1000061035156, 1.600000023841858, -96.69999694824219], "rotation": [-0.7071068286895752, -0.0, -0.0, 0.7071068286895752], "scale": [1.0, 1.0, 1.0], "extras": {"path": "lighting/day/Volumetric Rect Area Light (1)/dayVolumetric Rect Area Light (15)"}}, {"name": "dayVolumetric Rect Area Light (16)", "mesh": 54, "translation": [221.0, 0.6000000238418579, 1.2999999523162842], "rotation": [-0.7071068286895752, -0.0, -0.0, 0.7071068286895752], "scale": [1.0, 1.0, 1.0], "extras": {"path": "lighting/day/Volumetric Rect Area Light (1)/dayVolumetric Rect Area Light (16)"}}, {"name": "dayVolumetric Rect Area Light (3)", "mesh": 55, "translation": [-125.4000015258789, 0.6000000238418579, -4.900000095367432], "rotation": [-0.7071068286895752, -0.0, -0.0, 0.7071068286895752], "scale": [1.0, 1.0, 1.0], "extras": {"path": "lighting/day/Volumetric Rect Area Light (1)/dayVolumetric Rect Area Light (3)"}}, {"name": "Volumetric Rect Area Light (15)", "mesh": 56, "translation": [-333.29998779296875, 0.6000000238418579, -95.0999984741211], "rotation": [-0.7071068286895752, -0.0, -0.0, 0.7071068286895752], "scale": [1.0, 1.0, 1.0], "extras": {"path": "lighting/night/Volumetric Rect Area Light/Volumetric Rect Area Light (15)", "hidden": "renderer-disabled"}}, {"name": "Volumetric Rect Area Light (4)", "mesh": 57, "translation": [-190.0, 10.430000305175781, 41.400001525878906], "rotation": [-0.7071068286895752, -0.0, -0.0, 0.7071068286895752], "scale": [1.0, 1.0, 1.0], "extras": {"path": "lighting/night/Volumetric Rect Area Light/Volumetric Rect Area Light (4)", "hidden": "renderer-disabled"}}, {"name": "dayVolumetric Rect Area Light (2)", "mesh": 58, "translation": [135.6999969482422, 6.5, 130.0], "rotation": [-0.7071068286895752, -0.0, -0.0, 0.7071068286895752], "scale": [1.0, 1.0, 1.0], "extras": {"path": "lighting/day/Volumetric Rect Area Light (1)/dayVolumetric Rect Area Light (2)"}}, {"name": "dayVolumetric Rect Area Light (4)", "mesh": 59, "translation": [-193.6999969482422, 10.430000305175781, 41.400001525878906], "rotation": [-0.7071068286895752, -0.0, -0.0, 0.7071068286895752], "scale": [1.0, 1.0, 1.0], "extras": {"path": "lighting/day/Volumetric Rect Area Light (1)/dayVolumetric Rect Area Light (4)"}}, {"name": "PurpleVolumetric Rect Area Light (9)", "mesh": 60, "translation": [145.1999969482422, -0.800000011920929, -212.6999969482422], "rotation": [-0.7071068286895752, -0.0, -0.0, 0.7071068286895752], "scale": [1.0, 1.0, 1.0], "extras": {"path": "lighting/Purple scene/Volumetric Rect Area Light (1)/PurpleVolumetric Rect Area Light (9)", "hidden": "renderer-disabled"}}, {"name": "PurpleVolumetric Rect Area Light (4)", "mesh": 61, "translation": [-185.39999389648438, 10.430000305175781, 41.400001525878906], "rotation": [-0.7071068286895752, -0.0, -0.0, 0.7071068286895752], "scale": [1.0, 1.0, 1.0], "extras": {"path": "lighting/Purple scene/Volumetric Rect Area Light (1)/PurpleVolumetric Rect Area Light (4)", "hidden": "renderer-disabled"}}, {"name": "City_Specialbuildings_Group_5", "mesh": 62, "translation": [-0.0, 0.0, 0.0], "rotation": [0.0, -0.0, -0.0, 1.0], "scale": [1.0, 1.0, 1.0], "extras": {"path": "Scenemodel/City_Architecture/City_Specialbuildings_Group_5/City_Specialbuildings_Group_5"}}, {"name": "dayVolumetric Rect Area Light (6)", "mesh": 63, "translation": [220.1999969482422, 0.6000000238418579, 147.6999969482422], "rotation": [-0.7071068286895752, -0.0, -0.0, 0.7071068286895752], "scale": [1.0, 1.0, 1.0], "extras": {"path": "lighting/day/Volumetric Rect Area Light (1)/dayVolumetric Rect Area Light (6)"}}, {"name": "PurpleVolumetric Rect Area Light (11)", "mesh": 64, "translation": [268.70001220703125, -1.5, -91.5], "rotation": [-0.7071068286895752, -0.0, -0.0, 0.7071068286895752], "scale": [1.0, 1.0, 1.0], "extras": {"path": "lighting/Purple scene/Volumetric Rect Area Light (1)/PurpleVolumetric Rect Area Light (11)", "hidden": "renderer-disabled"}}, {"name": "City_Seagull", "mesh": 65, "translation": [9.800000190734863, 8.520000457763672, 386.05999755859375], "rotation": [1.737844928539134e-08, 0.6064192056655884, -1.325371268169186e-08, 0.7951451539993286], "scale": [1.0, 1.0, 1.0], "extras": {"path": "animation/Seagull animation (1)/City_Seagull"}}, {"name": "City_Citizen_Seas", "mesh": 66, "translation": [79.69999694824219, -2.0999999046325684, 386.0], "rotation": [0.0, -0.7071068286895752, -0.0, 0.7071068286895752], "scale": [1.0, 1.0, 1.0], "extras": {"path": "animation/City_Citizen_Seas/City_Citizen_Seas"}}, {"name": "City_Water", "mesh": 67, "translation": [-0.0, 0.0, 0.0], "rotation": [2.1855694143368964e-08, -0.0, -0.0, 1.0], "scale": [1.0, 1.0, 1.0], "extras": {"path": "lighting/day/City_Water"}}, {"name": "City_Landfill_n", "mesh": 68, "translation": [145.4661865234375, -1.1676483154296875, -212.32989501953125], "rotation": [8.146034247147327e-08, -0.0, -0.0, 1.0], "scale": [1.0, 1.0, 1.0], "extras": {"path": "Scenemodel/City_Landfill_n"}}, {"name": "City_Seagull", "mesh": 65, "translation": [68.4000015258789, 6.460000038146973, 368.6000061035156], "rotation": [9.680660132844548e-09, 0.8965535759925842, -1.9594800740037625e-08, 0.44293537735939026], "scale": [1.0, 1.0, 1.0], "extras": {"path": "animation/Seagull animation/City_Seagull"}}, {"name": "City_Citizen_Seas", "mesh": 66, "translation": [-66.0999984741211, -5.380000114440918, 279.29998779296875], "rotation": [2.1855694143368964e-08, -0.0, -0.0, 1.0], "scale": [1.0, 1.0, 1.0], "extras": {"path": "animation/City_Citizen_Seas_Parent (1)/City_Citizen_Seas"}}, {"name": "City_Car", "mesh": 69, "translation": [-179.5, 69.0, 447.70001220703125], "rotation": [0.0, -1.0, -0.0, 0.0], "scale": [1.0, 1.0, 1.0], "extras": {"path": "animation/City_Car (1)/City_Car"}}, {"name": "City_Car", "mesh": 69, "translation": [418.70001220703125, 33.79999923706055, 72.41000366210938], "rotation": [0.0, -0.7071068286895752, -0.0, 0.7071068286895752], "scale": [1.0, 1.0, 1.0], "extras": {"path": "animation/City_Car (2)/City_Car"}}, {"name": "City_Car", "mesh": 69, "translation": [354.0, 62.0, -486.0], "rotation": [0.0, -0.0, -0.0, 1.0], "scale": [1.0, 1.0, 1.0], "extras": {"path": "animation/City_Car (4)/City_Car"}}, {"name": "City_Car", "mesh": 69, "translation": [-554.9000244140625, 98.9000015258789, -28.0], "rotation": [0.0, 0.7071068286895752, -0.0, 0.7071068286895752], "scale": [1.0, 1.0, 1.0], "extras": {"path": "animation/City_Car (3)/City_Car"}}, {"name": "City_Car", "mesh": 69, "translation": [206.0, 62.0, -588.0], "rotation": [0.0, -0.0, -0.0, 1.0], "scale": [1.0, 1.0, 1.0], "extras": {"path": "animation/City_Car/City_Car"}}, {"name": "City_Citizen_Seas", "mesh": 66, "translation": [-65.0, -5.380000114440918, 246.6999969482422], "rotation": [2.1855694143368964e-08, -0.0, -0.0, 1.0], "scale": [1.0, 1.0, 1.0], "extras": {"path": "animation/City_Citizen_Seas_Parent/City_Citizen_Seas"}}, {"name": "City_Water_01", "mesh": 70, "translation": [-0.0, 0.0, 0.0], "rotation": [0.0, -0.0, -0.0, 1.0], "scale": [1.0, 1.0, 1.0], "extras": {"path": "lighting/Purple scene/City_Water_01", "hidden": "inactive-ancestor:Purple scene"}}, {"name": "City_Water_02", "mesh": 71, "translation": [-0.0, 0.0, 0.0], "rotation": [0.0, -0.0, -0.0, 1.0], "scale": [1.0, 1.0, 1.0], "extras": {"path": "lighting/night/City_Water_02", "hidden": "inactive-ancestor:night"}}, {"name": "City_Buildingcomplex", "mesh": 72, "translation": [-0.0, 0.0, 0.0], "rotation": [0.0, -0.0, -0.0, 1.0], "scale": [1.0, 1.0, 1.0], "extras": {"path": "Scenemodel/City_Buildingcomplex"}}, {"name": "City_Surface", "mesh": 73, "translation": [-0.0, 0.0, 0.0], "rotation": [8.146034247147327e-08, -0.0, -0.0, 1.0], "scale": [1.0, 1.0, 1.0], "extras": {"path": "Scenemodel/City_Surface"}}, {"name": "City_Seagull", "mesh": 65, "translation": [-202.6199951171875, 6.460000038146973, 343.6000061035156], "rotation": [-2.1755632385634766e-08, 0.09558115899562836, -2.0889925768771725e-09, -0.9954217076301575], "scale": [1.0, 1.0, 1.0], "extras": {"path": "animation/Seagull animation2/City_Seagull"}}, {"name": "City_AjinLand_n", "mesh": 74, "translation": [221.5500030517578, 0.2899932861328125, 1.8599853515625], "rotation": [0.0, -0.0, -0.0, 1.0], "scale": [1.0, 1.0, 1.0], "extras": {"path": "Scenemodel/City_AjinLand_n"}}, {"name": "City_Seagull", "mesh": 65, "translation": [-118.48999786376953, 6.460000038146973, 429.42999267578125], "rotation": [-1.7934530607083307e-08, -0.5715195536613464, 1.2490956561777134e-08, -0.8205884695053101], "scale": [1.0, 1.0, 1.0], "extras": {"path": "animation/Seagull animation2 (1)/City_Seagull"}}, {"name": "City_Hospital_n", "mesh": 75, "translation": [266.1000061035156, -0.160003662109375, 67.36001586914062], "rotation": [8.146034247147327e-08, -0.0, -0.0, 1.0], "scale": [1.0, 1.0, 1.0], "extras": {"path": "Scenemodel/City_Hospital_n"}}, {"name": "City_Selfcurtilage_n", "mesh": 76, "translation": [267.79998779296875, -0.067657470703125, -91.30001831054688], "rotation": [8.146034247147327e-08, -0.0, -0.0, 1.0], "scale": [1.0, 1.0, 1.0], "extras": {"path": "Scenemodel/City_Selfcurtilage_n"}}], "meshes": [{"name": "Box", "primitives": [{"attributes": {"POSITION": 0}, "indices": 1}]}, {"name": "Box", "primitives": [{"attributes": {"POSITION": 2}, "indices": 3}]}, {"name": "Box", "primitives": [{"attributes": {"POSITION": 4}, "indices": 5}]}, {"name": "Capped Cone", "primitives": [{"attributes": {"POSITION": 6}, "indices": 7}]}, {"name": "Box", "primitives": [{"attributes": {"POSITION": 8}, "indices": 9}]}, {"name": "Cylinder", "primitives": [{"attributes": {"POSITION": 10}, "indices": 11}]}, {"name": "City_Specialbuildings_Group_6", "primitives": [{"attributes": {"POSITION": 12, "NORMAL": 13, "TEXCOORD_0": 14}, "indices": 15, "material": 0}]}, {"name": "Cylinder", "primitives": [{"attributes": {"POSITION": 16}, "indices": 17}]}, {"name": "Box", "primitives": [{"attributes": {"POSITION": 18}, "indices": 19}]}, {"name": "Box", "primitives": [{"attributes": {"POSITION": 20}, "indices": 21}]}, {"name": "Box", "primitives": [{"attributes": {"POSITION": 22}, "indices": 23}]}, {"name": "Box", "primitives": [{"attributes": {"POSITION": 24}, "indices": 25}]}, {"name": "Box", "primitives": [{"attributes": {"POSITION": 26}, "indices": 27}]}, {"name": "Box", "primitives": [{"attributes": {"POSITION": 28}, "indices": 29}]}, {"name": "City_Specialbuildings_Group_4", "primitives": [{"attributes": {"POSITION": 30, "NORMAL": 31, "TEXCOORD_0": 32}, "indices": 33, "material": 0}]}, {"name": "Box", "primitives": [{"attributes": {"POSITION": 34}, "indices": 35}]}, {"name": "Capped Cone", "primitives": [{"attributes": {"POSITION": 36}, "indices": 37}]}, {"name": "Box", "primitives": [{"attributes": {"POSITION": 38}, "indices": 39}]}, {"name": "Box", "primitives": [{"attributes": {"POSITION": 40}, "indices": 41}]}, {"name": "Box", "primitives": [{"attributes": {"POSITION": 42}, "indices": 43}]}, {"name": "Box", "primitives": [{"attributes": {"POSITION": 44}, "indices": 45}]}, {"name": "Box", "primitives": [{"attributes": {"POSITION": 46}, "indices": 47}]}, {"name": "Box", "primitives": [{"attributes": {"POSITION": 48}, "indices": 49}]}, {"name": "Box", "primitives": [{"attributes": {"POSITION": 50}, "indices": 51}]}, {"name": "City_Specialbuildings_Group_3", "primitives": [{"attributes": {"POSITION": 52, "NORMAL": 53, "TEXCOORD_0": 54}, "indices": 55, "material": 0}]}, {"name": "Box", "primitives": [{"attributes": {"POSITION": 56}, "indices": 57}]}, {"name": "City_Specialbuildings_Group_2", "primitives": [{"attributes": {"POSITION": 58, "NORMAL": 59, "TEXCOORD_0": 60}, "indices": 61, "material": 0}]}, {"name": "City_mountainrange", "primitives": [{"attributes": {"POSITION": 62, "NORMAL": 63, "TEXCOORD_0": 64}, "indices": 65, "material": 1}]}, {"name": "Box", "primitives": [{"attributes": {"POSITION": 66}, "indices": 67}]}, {"name": "Box", "primitives": [{"attributes": {"POSITION": 68}, "indices": 69}]}, {"name": "Cylinder", "primitives": [{"attributes": {"POSITION": 70}, "indices": 71}]}, {"name": "Box", "primitives": [{"attributes": {"POSITION": 72}, "indices": 73}]}, {"name": "Box", "primitives": [{"attributes": {"POSITION": 74}, "indices": 75}]}, {"name": "Box", "primitives": [{"attributes": {"POSITION": 76}, "indices": 77}]}, {"name": "Box", "primitives": [{"attributes": {"POSITION": 78}, "indices": 79}]}, {"name": "Box", "primitives": [{"attributes": {"POSITION": 80}, "indices": 81}]}, {"name": "Box", "primitives": [{"attributes": {"POSITION": 82}, "indices": 83}]}, {"name": "Box", "primitives": [{"attributes": {"POSITION": 84}, "indices": 85}]}, {"name": "Capped Cone", "primitives": [{"attributes": {"POSITION": 86}, "indices": 87}]}, {"name": "Box", "primitives": [{"attributes": {"POSITION": 88}, "indices": 89}]}, {"name": "Box", "primitives": [{"attributes": {"POSITION": 90}, "indices": 91}]}, {"name": "Box", "primitives": [{"attributes": {"POSITION": 92}, "indices": 93}]}, {"name": "stone", "primitives": [{"attributes": {"POSITION": 94, "NORMAL": 95, "TEXCOORD_0": 96}, "indices": 97, "material": 2}]}, {"name": "Box", "primitives": [{"attributes": {"POSITION": 98}, "indices": 99}]}, {"name": "Box", "primitives": [{"attributes": {"POSITION": 100}, "indices": 101}]}, {"name": "Box", "primitives": [{"attributes": {"POSITION": 102}, "indices": 103}]}, {"name": "Box", "primitives": [{"attributes": {"POSITION": 104}, "indices": 105}]}, {"name": "City_Specialbuildings_Group_6", "primitives": [{"attributes": {"POSITION": 106, "NORMAL": 107, "TEXCOORD_0": 108}, "indices": 109, "material": 0}]}, {"name": "Box", "primitives": [{"attributes": {"POSITION": 110}, "indices": 111}]}, {"name": "Box", "primitives": [{"attributes": {"POSITION": 112}, "indices": 113}]}, {"name": "Box", "primitives": [{"attributes": {"POSITION": 114}, "indices": 115}]}, {"name": "Box", "primitives": [{"attributes": {"POSITION": 116}, "indices": 117}]}, {"name": "Box", "primitives": [{"attributes": {"POSITION": 118}, "indices": 119}]}, {"name": "Box", "primitives": [{"attributes": {"POSITION": 120}, "indices": 121}]}, {"name": "Box", "primitives": [{"attributes": {"POSITION": 122}, "indices": 123}]}, {"name": "Box", "primitives": [{"attributes": {"POSITION": 124}, "indices": 125}]}, {"name": "Box", "primitives": [{"attributes": {"POSITION": 126}, "indices": 127}]}, {"name": "Box", "primitives": [{"attributes": {"POSITION": 128}, "indices": 129}]}, {"name": "Box", "primitives": [{"attributes": {"POSITION": 130}, "indices": 131}]}, {"name": "Box", "primitives": [{"attributes": {"POSITION": 132}, "indices": 133}]}, {"name": "Box", "primitives": [{"attributes": {"POSITION": 134}, "indices": 135}]}, {"name": "Box", "primitives": [{"attributes": {"POSITION": 136}, "indices": 137}]}, {"name": "City_Specialbuildings_Group_5", "primitives": [{"attributes": {"POSITION": 138, "NORMAL": 139, "TEXCOORD_0": 140}, "indices": 141, "material": 0}]}, {"name": "Box", "primitives": [{"attributes": {"POSITION": 142}, "indices": 143}]}, {"name": "Box", "primitives": [{"attributes": {"POSITION": 144}, "indices": 145}]}, {"name": "City_Seagull", "primitives": [{"attributes": {"POSITION": 146, "NORMAL": 147, "TEXCOORD_0": 148}, "indices": 149, "material": 3}]}, {"name": "City_Citizen_Seas", "primitives": [{"attributes": {"POSITION": 150, "NORMAL": 151, "TEXCOORD_0": 152}, "indices": 153, "material": 3}]}, {"name": "City_Water", "primitives": [{"attributes": {"POSITION": 154, "NORMAL": 155, "TEXCOORD_0": 156}, "indices": 157, "material": 4}]}, {"name": "City_Landfill_n", "primitives": [{"attributes": {"POSITION": 158, "NORMAL": 159, "TEXCOORD_0": 160}, "indices": 161, "material": 0}]}, {"name": "City_Car", "primitives": [{"attributes": {"POSITION": 162, "NORMAL": 163, "TEXCOORD_0": 164}, "indices": 165, "material": 5}]}, {"name": "City_Water_01", "primitives": [{"attributes": {"POSITION": 166, "NORMAL": 167, "TEXCOORD_0": 168}, "indices": 169, "material": 6}]}, {"name": "City_Water_02", "primitives": [{"attributes": {"POSITION": 170, "NORMAL": 171, "TEXCOORD_0": 172}, "indices": 173, "material": 7}]}, {"name": "City_Buildingcomplex", "primitives": [{"attributes": {"POSITION": 174, "NORMAL": 175, "TEXCOORD_0": 176}, "indices": 177, "material": 3}]}, {"name": "City_Surface", "primitives": [{"attributes": {"POSITION": 178, "NORMAL": 179, "TEXCOORD_0": 180}, "indices": 181, "material": 2}]}, {"name": "City_AjinLand_n", "primitives": [{"attributes": {"POSITION": 182, "NORMAL": 183, "TEXCOORD_0": 184}, "indices": 185, "material": 0}]}, {"name": "City_Hospital_n", "primitives": [{"attributes": {"POSITION": 186, "NORMAL": 187, "TEXCOORD_0": 188}, "indices": 189, "material": 0}]}, {"name": "City_Selfcurtilage_n", "primitives": [{"attributes": {"POSITION": 190, "NORMAL": 191, "TEXCOORD_0": 192}, "indices": 193, "material": 0}]}], "materials": [{"name": "MainScene_Generalbuilding 1", "pbrMetallicRoughness": {"baseColorFactor": [1.0, 1.0, 1.0, 1.0], "baseColorTexture": {"index": 0}, "metallicFactor": 0.0, "roughnessFactor": 0.5769999921321869}, "doubleSided": true}, {"name": "MainScene_mountainrange", "pbrMetallicRoughness": {"baseColorFactor": [1.0, 1.0, 1.0, 1.0], "baseColorTexture": {"index": 1}, "metallicFactor": 0.14000000059604645, "roughnessFactor": 0.6899999976158142}, "doubleSided": true}, {"name": "MainScene_Surface", "pbrMetallicRoughness": {"baseColorFactor": [1.0, 1.0, 1.0, 1.0], "baseColorTexture": {"index": 2}, "metallicFactor": 0.17399999499320984, "roughnessFactor": 0.0}, "doubleSided": true}, {"name": "MainScene_Generalbuilding", "pbrMetallicRoughness": {"baseColorFactor": [0.8773584961891174, 0.8773584961891174, 0.8773584961891174, 1.0], "baseColorTexture": {"index": 0}, "metallicFactor": 0.14000000059604645, "roughnessFactor": 0.6349999904632568}, "doubleSided": true}, {"name": "Water", "pbrMetallicRoughness": {"baseColorFactor": [0.004004983231425285, 0.08675792813301086, 0.16981130838394165, 1.0], "metallicFactor": 0.0, "roughnessFactor": 0.5}, "doubleSided": true}, {"name": "MainScene_Car", "pbrMetallicRoughness": {"baseColorFactor": [0.7735849022865295, 0.7699359059333801, 0.7699359059333801, 1.0], "metallicFactor": 0.14000000059604645, "roughnessFactor": 0.6899999976158142}, "doubleSided": true}, {"name": "Water_01", "pbrMetallicRoughness": {"baseColorFactor": [0.11454252898693085, 0.11454252898693085, 0.24528300762176514, 1.0], "metallicFactor": 0.0, "roughnessFactor": 0.5}, "doubleSided": true}, {"name": "Water_02", "pbrMetallicRoughness": {"baseColorFactor": [0.00865075085312128, 0.11271534860134125, 0.16981130838394165, 1.0], "metallicFactor": 0.0, "roughnessFactor": 0.5}, "doubleSided": true}], "accessors": [{"bufferView": 0, "componentType": 5126, "count": 24, "type": "VEC3", "min": [-20.531721115112305, -33.79707336425781, 0.0], "max": [20.531721115112305, 33.79707336425781, 123.90133666992188]}, {"bufferView": 1, "componentType": 5123, "count": 36, "type": "SCALAR"}, {"bufferView": 2, "componentType": 5126, "count": 24, "type": "VEC3", "min": [-28.27894401550293, -25.78374481201172, 0.0], "max": [28.27894401550293, 25.78374481201172, 36.803802490234375]}, {"bufferView": 3, "componentType": 5123, "count": 36, "type": "SCALAR"}, {"bufferView": 4, "componentType": 5126, "count": 24, "type": "VEC3", "min": [-28.508075714111328, -29.793277740478516, 0.0], "max": [28.508075714111328, 29.793277740478516, 27.6466007232666]}, {"bufferView": 5, "componentType": 5123, "count": 36, "type": "SCALAR"}, {"bufferView": 6, "componentType": 5126, "count": 66, "type": "VEC3", "min": [-2.5217175483703613, -2.5217175483703613, 0.0], "max": [2.5217175483703613, 2.5217175483703613, 30.0]}, {"bufferView": 7, "componentType": 5123, "count": 384, "type": "SCALAR"}, {"bufferView": 8, "componentType": 5126, "count": 24, "type": "VEC3", "min": [-34.27732467651367, -43.25214385986328, 0.0], "max": [34.27732467651367, 43.25214385986328, 137.51905822753906]}, {"bufferView": 9, "componentType": 5123, "count": 36, "type": "SCALAR"}, {"bufferView": 10, "componentType": 5126, "count": 66, "type": "VEC3", "min": [-45.26039505004883, -45.26039505004883, 0.0], "max": [45.26039505004883, 45.26039505004883, 90.44999694824219]}, {"bufferView": 11, "componentType": 5123, "count": 384, "type": "SCALAR"}, {"bufferView": 12, "componentType": 5126, "count": 773, "type": "VEC3", "min": [-277.8569641113281, 10.337543487548828, -23.936180114746094], "max": [-109.43840789794922, 144.3292999267578, 130.2581024169922]}, {"bufferView": 13, "componentType": 5126, "count": 773, "type": "VEC3"}, {"bufferView": 14, "componentType": 5126, "count": 773, "type": "VEC2"}, {"bufferView": 15, "componentType": 5123, "count": 1209, "type": "SCALAR"}, {"bufferView": 16, "componentType": 5126, "count": 66, "type": "VEC3", "min": [-36.71865463256836, -36.71865463256836, 0.0], "max": [36.71865463256836, 36.71865463256836, 89.69000244140625]}, {"bufferView": 17, "componentType": 5123, "count": 384, "type": "SCALAR"}, {"bufferView": 18, "componentType": 5126, "count": 24, "type": "VEC3", "min": [-27.40907859802246, -29.96725845336914, 0.0], "max": [27.40907859802246, 29.96725845336914, 37.22521209716797]}, {"bufferView": 19, "componentType": 5123, "count": 36, "type": "SCALAR"}, {"bufferView": 20, "componentType": 5126, "count": 24, "type": "VEC3", "min": [-43.129539489746094, -51.54985046386719, 0.0], "max": [43.129539489746094, 51.54985046386719, 47.96089172363281]}, {"bufferView": 21, "componentType": 5123, "count": 36, "type": "SCALAR"}, {"bufferView": 22, "componentType": 5126, "count": 24, "type": "VEC3", "min": [-27.4736270904541, -23.934206008911133, 0.0], "max": [27.4736270904541, 23.934206008911133, 42.96405029296875]}, {"bufferView": 23, "componentType": 5123, "count": 36, "type": "SCALAR"}, {"bufferView": 24, "componentType": 5126, "count": 24, "type": "VEC3", "min": [-26.369873046875, -37.19540023803711, 0.0], "max": [26.369873046875, 37.19540023803711, 36.16625213623047]}, {"bufferView": 25, "componentType": 5123, "count": 36, "type": "SCALAR"}, {"bufferView": 26, "componentType": 5126, "count": 24, "type": "VEC3", "min": [-26.027997970581055, -33.74215316772461, 0.0], "max": [26.027997970581055, 33.74215316772461, 35.312679290771484]}, {"bufferView": 27, "componentType": 5123, "count": 36, "type": "SCALAR"}, {"bufferView": 28, "componentType": 5126, "count": 24, "type": "VEC3", "min": [-33.173545837402344, -30.859111785888672, 0.0], "max": [33.173545837402344, 30.859111785888672, 57.06409454345703]}, {"bufferView": 29, "componentType": 5123, "count": 36, "type": "SCALAR"}, {"bufferView": 30, "componentType": 5126, "count": 332, "type": "VEC3", "min": [-102.99860382080078, -5.603109457297251e-06, -195.3212890625], "max": [33.98744201660156, 48.2743034362793, -124.75936889648438]}, {"bufferView": 31, "componentType": 5126, "count": 332, "type": "VEC3"}, {"bufferView": 32, "componentType": 5126, "count": 332, "type": "VEC2"}, {"bufferView": 33, "componentType": 5123, "count": 522, "type": "SCALAR"}, {"bufferView": 34, "componentType": 5126, "count": 24, "type": "VEC3", "min": [-23.20635414123535, -26.952260971069336, 0.0], "max": [23.20635414123535, 26.952260971069336, 45.704132080078125]}, {"bufferView": 35, "componentType": 5123, "count": 36, "type": "SCALAR"}, {"bufferView": 36, "componentType": 5126, "count": 66, "type": "VEC3", "min": [-2.5217175483703613, -2.5217175483703613, 0.0], "max": [2.5217175483703613, 2.5217175483703613, 30.0]}, {"bufferView": 37, "componentType": 5123, "count": 384, "type": "SCALAR"}, {"bufferView": 38, "componentType": 5126, "count": 24, "type": "VEC3", "min": [-36.7819938659668, -27.58649444580078, 0.0], "max": [36.7819938659668, 27.58649444580078, 48.37999725341797]}, {"bufferView": 39, "componentType": 5123, "count": 36, "type": "SCALAR"}, {"bufferView": 40, "componentType": 5126, "count": 24, "type": "VEC3", "min": [-48.063743591308594, -22.585124969482422, 0.0], "max": [48.063743591308594, 22.585124969482422, 53.898719787597656]}, {"bufferView": 41, "componentType": 5123, "count": 36, "type": "SCALAR"}, {"bufferView": 42, "componentType": 5126, "count": 24, "type": "VEC3", "min": [-34.4691162109375, -32.870750427246094, 0.0], "max": [34.4691162109375, 32.870750427246094, 68.5989761352539]}, {"bufferView": 43, "componentType": 5123, "count": 36, "type": "SCALAR"}, {"bufferView": 44, "componentType": 5126, "count": 24, "type": "VEC3", "min": [-24.400997161865234, -22.115955352783203, 0.0], "max": [24.400997161865234, 22.115955352783203, 41.116844177246094]}, {"bufferView": 45, "componentType": 5123, "count": 36, "type": "SCALAR"}, {"bufferView": 46, "componentType": 5126, "count": 24, "type": "VEC3", "min": [-42.75220489501953, -40.769744873046875, 0.0], "max": [42.75220489501953, 40.769744873046875, 50.86897277832031]}, {"bufferView": 47, "componentType": 5123, "count": 36, "type": "SCALAR"}, {"bufferView": 48, "componentType": 5126, "count": 24, "type": "VEC3", "min": [-48.880252838134766, -58.42329025268555, 0.0], "max": [48.880252838134766, 58.42329025268555, 46.03089141845703]}, {"bufferView": 49, "componentType": 5123, "count": 36, "type": "SCALAR"}, {"bufferView": 50, "componentType": 5126, "count": 24, "type": "VEC3", "min": [-31.641830444335938, -28.61962890625, 0.0], "max": [31.641830444335938, 28.61962890625, 34.19454574584961]}, {"bufferView": 51, "componentType": 5123, "count": 36, "type": "SCALAR"}, {"bufferView": 52, "componentType": 5126, "count": 632, "type": "VEC3", "min": [-182.034423828125, -0.9848441481590271, 83.07914733886719], "max": [96.28280639648438, 43.21894073486328, 228.99594116210938]}, {"bufferView": 53, "componentType": 5126, "count": 632, "type": "VEC3"}, {"bufferView": 54, "componentType": 5126, "count": 632, "type": "VEC2"}, {"bufferView": 55, "componentType": 5123, "count": 996, "type": "SCALAR"}, {"bufferView": 56, "componentType": 5126, "count": 24, "type": "VEC3", "min": [-40.87971878051758, -40.461727142333984, 0.0], "max": [40.87971878051758, 40.461727142333984, 43.481201171875]}, {"bufferView": 57, "componentType": 5123, "count": 36, "type": "SCALAR"}, {"bufferView": 58, "componentType": 5126, "count": 390, "type": "VEC3", "min": [166.1111602783203, -0.07345906645059586, 135.52975463867188], "max": [238.06837463378906, 22.02010154724121, 257.2577819824219]}, {"bufferView": 59, "componentType": 5126, "count": 390, "type": "VEC3"}, {"bufferView": 60, "componentType": 5126, "count": 390, "type": "VEC2"}, {"bufferView": 61, "componentType": 5123, "count": 642, "type": "SCALAR"}, {"bufferView": 62, "componentType": 5126, "count": 61206, "type": "VEC3", "min": [-955.6803588867188, -1.476799726486206, -1138.9398193359375], "max": [936.896484375, 77.41117858886719, 172.63803100585938]}, {"bufferView": 63, "componentType": 5126, "count": 61206, "type": "VEC3"}, {"bufferView": 64, "componentType": 5126, "count": 61206, "type": "VEC2"}, {"bufferView": 65, "componentType": 5123, "count": 360000, "type": "SCALAR"}, {"bufferView": 66, "componentType": 5126, "count": 24, "type": "VEC3", "min": [-49.773738861083984, -47.46568298339844, 0.0], "max": [49.773738861083984, 47.46568298339844, 38.39897537231445]}, {"bufferView": 67, "componentType": 5123, "count": 36, "type": "SCALAR"}, {"bufferView": 68, "componentType": 5126, "count": 24, "type": "VEC3", "min": [-25.399999618530273, -29.5, 0.0], "max": [25.399999618530273, 29.5, 37.464134216308594]}, {"bufferView": 69, "componentType": 5123, "count": 36, "type": "SCALAR"}, {"bufferView": 70, "componentType": 5126, "count": 66, "type": "VEC3", "min": [-40.926612854003906, -40.926612854003906, 0.0], "max": [40.926612854003906, 40.926612854003906, 89.69000244140625]}, {"bufferView": 71, "componentType": 5123, "count": 384, "type": "SCALAR"}, {"bufferView": 72, "componentType": 5126, "count": 24, "type": "VEC3", "min": [-28.276086807250977, -35.28025817871094, 0.0], "max": [28.276086807250977, 35.28025817871094, 54.558998107910156]}, {"bufferView": 73, "componentType": 5123, "count": 36, "type": "SCALAR"}, {"bufferView": 74, "componentType": 5126, "count": 24, "type": "VEC3", "min": [-32.85643768310547, -31.283029556274414, 0.0], "max": [32.85643768310547, 31.283029556274414, 49.50862121582031]}, {"bufferView": 75, "componentType": 5123, "count": 36, "type": "SCALAR"}, {"bufferView": 76, "componentType": 5126, "count": 24, "type": "VEC3", "min": [-42.262306213378906, -39.31377410888672, 0.0], "max": [42.262306213378906, 39.31377410888672, 44.36409378051758]}, {"bufferView": 77, "componentType": 5123, "count": 36, "type": "SCALAR"}, {"bufferView": 78, "componentType": 5126, "count": 24, "type": "VEC3", "min": [-25.143882751464844, -25.54458236694336, 0.0], "max": [25.143882751464844, 25.54458236694336, 50.160362243652344]}, {"bufferView": 79, "componentType": 5123, "count": 36, "type": "SCALAR"}, {"bufferView": 80, "componentType": 5126, "count": 24, "type": "VEC3", "min": [-23.770994186401367, -24.14981460571289, 0.0], "max": [23.770994186401367, 24.14981460571289, 36.76036071777344]}, {"bufferView": 81, "componentType": 5123, "count": 36, "type": "SCALAR"}, {"bufferView": 82, "componentType": 5126, "count": 24, "type": "VEC3", "min": [-29.95192527770996, -33.19144058227539, 0.0], "max": [29.95192527770996, 33.19144058227539, 41.903404235839844]}, {"bufferView": 83, "componentType": 5123, "count": 36, "type": "SCALAR"}, {"bufferView": 84, "componentType": 5126, "count": 24, "type": "VEC3", "min": [-34.91233825683594, -35.505645751953125, 0.0], "max": [34.91233825683594, 35.505645751953125, 36.856868743896484]}, {"bufferView": 85, "componentType": 5123, "count": 36, "type": "SCALAR"}, {"bufferView": 86, "componentType": 5126, "count": 66, "type": "VEC3", "min": [-2.5217175483703613, -2.5217175483703613, 0.0], "max": [2.5217175483703613, 2.5217175483703613, 30.0]}, {"bufferView": 87, "componentType": 5123, "count": 384, "type": "SCALAR"}, {"bufferView": 88, "componentType": 5126, "count": 24, "type": "VEC3", "min": [-22.993648529052734, -24.030248641967773, 0.0], "max": [22.993648529052734, 24.030248641967773, 28.346599578857422]}, {"bufferView": 89, "componentType": 5123, "count": 36, "type": "SCALAR"}, {"bufferView": 90, "componentType": 5126, "count": 24, "type": "VEC3", "min": [-31.58524513244629, -27.516122817993164, 0.0], "max": [31.58524513244629, 27.516122817993164, 33.59404754638672]}, {"bufferView": 91, "componentType": 5123, "count": 36, "type": "SCALAR"}, {"bufferView": 92, "componentType": 5126, "count": 24, "type": "VEC3", "min": [-23.351625442504883, -21.291189193725586, 0.0], "max": [23.351625442504883, 21.291189193725586, 36.803802490234375]}, {"bufferView": 93, "componentType": 5123, "count": 36, "type": "SCALAR"}, {"bufferView": 94, "componentType": 5126, "count": 2548, "type": "VEC3", "min": [-522.923583984375, -5.218618392944336, -696.7369384765625], "max": [326.17047119140625, 21.227157592773438, -60.531524658203125]}, {"bufferView": 95, "componentType": 5126, "count": 2548, "type": "VEC3"}, {"bufferView": 96, "componentType": 5126, "count": 2548, "type": "VEC2"}, {"bufferView": 97, "componentType": 5123, "count": 5109, "type": "SCALAR"}, {"bufferView": 98, "componentType": 5126, "count": 24, "type": "VEC3", "min": [-25.301870346069336, -22.932466506958008, 0.0], "max": [25.301870346069336, 22.932466506958008, 47.196842193603516]}, {"bufferView": 99, "componentType": 5123, "count": 36, "type": "SCALAR"}, {"bufferView": 100, "componentType": 5126, "count": 24, "type": "VEC3", "min": [-19.469341278076172, -20.686174392700195, 0.0], "max": [19.469341278076172, 20.686174392700195, 32.208927154541016]}, {"bufferView": 101, "componentType": 5123, "count": 36, "type": "SCALAR"}, {"bufferView": 102, "componentType": 5126, "count": 24, "type": "VEC3", "min": [-43.088626861572266, -34.36317825317383, 0.0], "max": [43.088626861572266, 34.36317825317383, 50.58129119873047]}, {"bufferView": 103, "componentType": 5123, "count": 36, "type": "SCALAR"}, {"bufferView": 104, "componentType": 5126, "count": 24, "type": "VEC3", "min": [-50.45621871948242, -20.948030471801758, 0.0], "max": [50.45621871948242, 20.948030471801758, 51.15003204345703]}, {"bufferView": 105, "componentType": 5123, "count": 36, "type": "SCALAR"}, {"bufferView": 106, "componentType": 5126, "count": 598, "type": "VEC3", "min": [59.820884704589844, 10.320002555847168, 39.772666931152344], "max": [147.15911865234375, 92.32911682128906, 136.05174255371094]}, {"bufferView": 107, "componentType": 5126, "count": 598, "type": "VEC3"}, {"bufferView": 108, "componentType": 5126, "count": 598, "type": "VEC2"}, {"bufferView": 109, "componentType": 5123, "count": 1062, "type": "SCALAR"}, {"bufferView": 110, "componentType": 5126, "count": 24, "type": "VEC3", "min": [-30.105085372924805, -32.914894104003906, 0.0], "max": [30.105085372924805, 32.914894104003906, 45.20520782470703]}, {"bufferView": 111, "componentType": 5123, "count": 36, "type": "SCALAR"}, {"bufferView": 112, "componentType": 5126, "count": 24, "type": "VEC3", "min": [-25.402751922607422, -22.1301212310791, 0.0], "max": [25.402751922607422, 22.1301212310791, 37.96405029296875]}, {"bufferView": 113, "componentType": 5123, "count": 36, "type": "SCALAR"}, {"bufferView": 114, "componentType": 5126, "count": 24, "type": "VEC3", "min": [-27.627843856811523, -25.581336975097656, 0.0], "max": [27.627843856811523, 25.581336975097656, 39.278045654296875]}, {"bufferView": 115, "componentType": 5123, "count": 36, "type": "SCALAR"}, {"bufferView": 116, "componentType": 5126, "count": 24, "type": "VEC3", "min": [-19.307096481323242, -17.603530883789062, 0.0], "max": [19.307096481323242, 17.603530883789062, 56.10380554199219]}, {"bufferView": 117, "componentType": 5123, "count": 36, "type": "SCALAR"}, {"bufferView": 118, "componentType": 5126, "count": 24, "type": "VEC3", "min": [-57.593109130859375, -24.292203903198242, 0.0], "max": [57.593109130859375, 24.292203903198242, 57.2734375]}, {"bufferView": 119, "componentType": 5123, "count": 36, "type": "SCALAR"}, {"bufferView": 120, "componentType": 5126, "count": 24, "type": "VEC3", "min": [-47.10866928100586, -45.92034149169922, 0.0], "max": [47.10866928100586, 45.92034149169922, 39.65261459350586]}, {"bufferView": 121, "componentType": 5123, "count": 36, "type": "SCALAR"}, {"bufferView": 122, "componentType": 5126, "count": 24, "type": "VEC3", "min": [-25.444406509399414, -29.55157470703125, 0.0], "max": [25.444406509399414, 29.55157470703125, 29.46413230895996]}, {"bufferView": 123, "componentType": 5123, "count": 36, "type": "SCALAR"}, {"bufferView": 124, "componentType": 5126, "count": 24, "type": "VEC3", "min": [-27.07242774963379, -34.160789489746094, 0.0], "max": [27.07242774963379, 34.160789489746094, 115.51905822753906]}, {"bufferView": 125, "componentType": 5123, "count": 36, "type": "SCALAR"}, {"bufferView": 126, "componentType": 5126, "count": 24, "type": "VEC3", "min": [-40.411495208740234, -34.159423828125, 0.0], "max": [40.411495208740234, 34.159423828125, 42.749298095703125]}, {"bufferView": 127, "componentType": 5123, "count": 36, "type": "SCALAR"}, {"bufferView": 128, "componentType": 5126, "count": 24, "type": "VEC3", "min": [-28.30465316772461, -29.111053466796875, 0.0], "max": [28.30465316772461, 29.111053466796875, 60.98548126220703]}, {"bufferView": 129, "componentType": 5123, "count": 36, "type": "SCALAR"}, {"bufferView": 130, "componentType": 5126, "count": 24, "type": "VEC3", "min": [-21.536863327026367, -22.08022689819336, 0.0], "max": [21.536863327026367, 22.08022689819336, 28.110591888427734]}, {"bufferView": 131, "componentType": 5123, "count": 36, "type": "SCALAR"}, {"bufferView": 132, "componentType": 5126, "count": 24, "type": "VEC3", "min": [-28.816898345947266, -29.637893676757812, 0.0], "max": [28.816898345947266, 29.637893676757812, 68.77548217773438]}, {"bufferView": 133, "componentType": 5123, "count": 36, "type": "SCALAR"}, {"bufferView": 134, "componentType": 5126, "count": 24, "type": "VEC3", "min": [-42.07704162597656, -50.2918701171875, 0.0], "max": [42.07704162597656, 50.2918701171875, 44.730892181396484]}, {"bufferView": 135, "componentType": 5123, "count": 36, "type": "SCALAR"}, {"bufferView": 136, "componentType": 5126, "count": 24, "type": "VEC3", "min": [-23.048110961914062, -19.053977966308594, 0.0], "max": [23.048110961914062, 19.053977966308594, 56.33555603027344]}, {"bufferView": 137, "componentType": 5123, "count": 36, "type": "SCALAR"}, {"bufferView": 138, "componentType": 5126, "count": 283, "type": "VEC3", "min": [-360.338134765625, 1.1799739599227905, -121.33700561523438], "max": [-302.9591979980469, 48.01811981201172, 24.702028274536133]}, {"bufferView": 139, "componentType": 5126, "count": 283, "type": "VEC3"}, {"bufferView": 140, "componentType": 5126, "count": 283, "type": "VEC2"}, {"bufferView": 141, "componentType": 5123, "count": 453, "type": "SCALAR"}, {"bufferView": 142, "componentType": 5126, "count": 24, "type": "VEC3", "min": [-31.5679988861084, -30.056291580200195, 0.0], "max": [31.5679988861084, 30.056291580200195, 34.50862121582031]}, {"bufferView": 143, "componentType": 5123, "count": 36, "type": "SCALAR"}, {"bufferView": 144, "componentType": 5126, "count": 24, "type": "VEC3", "min": [-40.5215950012207, -51.452999114990234, 0.0], "max": [40.5215950012207, 51.452999114990234, 46.61967468261719]}, {"bufferView": 145, "componentType": 5123, "count": 36, "type": "SCALAR"}, {"bufferView": 146, "componentType": 5126, "count": 410, "type": "VEC3", "min": [-0.943381667137146, -0.24185220897197723, -1.5999174118041992], "max": [0.9433816075325012, 0.2418522983789444, 1.5999174118041992]}, {"bufferView": 147, "componentType": 5126, "count": 410, "type": "VEC3"}, {"bufferView": 148, "componentType": 5126, "count": 410, "type": "VEC2"}, {"bufferView": 149, "componentType": 5123, "count": 1386, "type": "SCALAR"}, {"bufferView": 150, "componentType": 5126, "count": 2997, "type": "VEC3", "min": [-3.103475332260132, -1.0065776109695435, -11.627921104431152], "max": [3.103475332260132, 7.980647563934326, 11.630532264709473]}, {"bufferView": 151, "componentType": 5126, "count": 2997, "type": "VEC3"}, {"bufferView": 152, "componentType": 5126, "count": 2997, "type": "VEC2"}, {"bufferView": 153, "componentType": 5123, "count": 5703, "type": "SCALAR"}, {"bufferView": 154, "componentType": 5126, "count": 5497, "type": "VEC3", "min": [-1272.4072265625, -5.394985198974609, -411.4515380859375], "max": [1024.884521484375, -4.602269649505615, 1105.1849365234375]}, {"bufferView": 155, "componentType": 5126, "count": 5497, "type": "VEC3"}, {"bufferView": 156, "componentType": 5126, "count": 5497, "type": "VEC2"}, {"bufferView": 157, "componentType": 5123, "count": 22815, "type": "SCALAR"}, {"bufferView": 158, "componentType": 5126, "count": 448, "type": "VEC3", "min": [-27.776748657226562, -1.895427703857422e-05, -29.314117431640625], "max": [27.776748657226562, 13.01188850402832, 29.314117431640625]}, {"bufferView": 159, "componentType": 5126, "count": 448, "type": "VEC3"}, {"bufferView": 160, "componentType": 5126, "count": 448, "type": "VEC2"}, {"bufferView": 161, "componentType": 5123, "count": 672, "type": "SCALAR"}, {"bufferView": 162, "componentType": 5126, "count": 3962, "type": "VEC3", "min": [-1.8128461837768555, -0.0016128773568198085, -4.043455123901367], "max": [1.8128461837768555, 2.223090171813965, 3.8735640048980713]}, {"bufferView": 163, "componentType": 5126, "count": 3962, "type": "VEC3"}, {"bufferView": 164, "componentType": 5126, "count": 3962, "type": "VEC2"}, {"bufferView": 165, "componentType": 5123, "count": 6822, "type": "SCALAR"}, {"bufferView": 166, "componentType": 5126, "count": 5574, "type": "VEC3", "min": [-1272.4072265625, -5.394985198974609, -411.4515380859375], "max": [1024.884521484375, -4.602269649505615, 1105.1849365234375]}, {"bufferView": 167, "componentType": 5126, "count": 5574, "type": "VEC3"}, {"bufferView": 168, "componentType": 5126, "count": 5574, "type": "VEC2"}, {"bufferView": 169, "componentType": 5123, "count": 22815, "type": "SCALAR"}, {"bufferView": 170, "componentType": 5126, "count": 5543, "type": "VEC3", "min": [-1272.4072265625, -5.394985198974609, -411.4515380859375], "max": [1024.884521484375, -4.602269649505615, 1105.1849365234375]}, {"bufferView": 171, "componentType": 5126, "count": 5543, "type": "VEC3"}, {"bufferView": 172, "componentType": 5126, "count": 5543, "type": "VEC2"}, {"bufferView": 173, "componentType": 5123, "count": 22815, "type": "SCALAR"}, {"bufferView": 174, "componentType": 5126, "count": 51674, "type": "VEC3", "min": [-504.21746826171875, -1.8980611562728882, -455.984619140625], "max": [556.1714477539062, 80.33935546875, 312.67108154296875]}, {"bufferView": 175, "componentType": 5126, "count": 51674, "type": "VEC3"}, {"bufferView": 176, "componentType": 5126, "count": 51674, "type": "VEC2"}, {"bufferView": 177, "componentType": 5123, "count": 79206, "type": "SCALAR"}, {"bufferView": 178, "componentType": 5126, "count": 192, "type": "VEC3", "min": [-1280.9818115234375, -170.33157348632812, -1120.309814453125], "max": [1021.05126953125, 0.003924542106688023, 1113.921142578125]}, {"bufferView": 179, "componentType": 5126, "count": 192, "type": "VEC3"}, {"bufferView": 180, "componentType": 5126, "count": 192, "type": "VEC2"}, {"bufferView": 181, "componentType": 5123, "count": 372, "type": "SCALAR"}, {"bufferView": 182, "componentType": 5126, "count": 160, "type": "VEC3", "min": [-9.876556396484375, -0.21030616760253906, -6.887171745300293], "max": [9.87652587890625, 33.20378112792969, 7.783169746398926]}, {"bufferView": 183, "componentType": 5126, "count": 160, "type": "VEC3"}, {"bufferView": 184, "componentType": 5126, "count": 160, "type": "VEC2"}, {"bufferView": 185, "componentType": 5123, "count": 240, "type": "SCALAR"}, {"bufferView": 186, "componentType": 5126, "count": 136, "type": "VEC3", "min": [-10.108551025390625, -3.910064697265625e-05, -7.804576873779297], "max": [10.10858154296875, 29.049659729003906, 7.9630889892578125]}, {"bufferView": 187, "componentType": 5126, "count": 136, "type": "VEC3"}, {"bufferView": 188, "componentType": 5126, "count": 136, "type": "VEC2"}, {"bufferView": 189, "componentType": 5123, "count": 216, "type": "SCALAR"}, {"bufferView": 190, "componentType": 5126, "count": 283, "type": "VEC3", "min": [-18.50244140625, -0.2550422251224518, -13.008560180664062], "max": [18.502410888671875, 23.942832946777344, 12.452255249023438]}, {"bufferView": 191, "componentType": 5126, "count": 283, "type": "VEC3"}, {"bufferView": 192, "componentType": 5126, "count": 283, "type": "VEC2"}, {"bufferView": 193, "componentType": 5123, "count": 465, "type": "SCALAR"}], "bufferViews": [{"buffer": 0, "byteOffset": 0, "byteLength": 288, "target": 34962}, {"buffer": 0, "byteOffset": 288, "byteLength": 72, "target": 34963}, {"buffer": 0, "byteOffset": 360, "byteLength": 288, "target": 34962}, {"buffer": 0, "byteOffset": 648, "byteLength": 72, "target": 34963}, {"buffer": 0, "byteOffset": 720, "byteLength": 288, "target": 34962}, {"buffer": 0, "byteOffset": 1008, "byteLength": 72, "target": 34963}, {"buffer": 0, "byteOffset": 1080, "byteLength": 792, "target": 34962}, {"buffer": 0, "byteOffset": 1872, "byteLength": 768, "target": 34963}, {"buffer": 0, "byteOffset": 2640, "byteLength": 288, "target": 34962}, {"buffer": 0, "byteOffset": 2928, "byteLength": 72, "target": 34963}, {"buffer": 0, "byteOffset": 3000, "byteLength": 792, "target": 34962}, {"buffer": 0, "byteOffset": 3792, "byteLength": 768, "target": 34963}, {"buffer": 0, "byteOffset": 4560, "byteLength": 9276, "target": 34962}, {"buffer": 0, "byteOffset": 13836, "byteLength": 9276, "target": 34962}, {"buffer": 0, "byteOffset": 23112, "byteLength": 6184, "target": 34962}, {"buffer": 0, "byteOffset": 29296, "byteLength": 2418, "target": 34963}, {"buffer": 0, "byteOffset": 31716, "byteLength": 792, "target": 34962}, {"buffer": 0, "byteOffset": 32508, "byteLength": 768, "target": 34963}, {"buffer": 0, "byteOffset": 33276, "byteLength": 288, "target": 34962}, {"buffer": 0, "byteOffset": 33564, "byteLength": 72, "target": 34963}, {"buffer": 0, "byteOffset": 33636, "byteLength": 288, "target": 34962}, {"buffer": 0, "byteOffset": 33924, "byteLength": 72, "target": 34963}, {"buffer": 0, "byteOffset": 33996, "byteLength": 288, "target": 34962}, {"buffer": 0, "byteOffset": 34284, "byteLength": 72, "target": 34963}, {"buffer": 0, "byteOffset": 34356, "byteLength": 288, "target": 34962}, {"buffer": 0, "byteOffset": 34644, "byteLength": 72, "target": 34963}, {"buffer": 0, "byteOffset": 34716, "byteLength": 288, "target": 34962}, {"buffer": 0, "byteOffset": 35004, "byteLength": 72, "target": 34963}, {"buffer": 0, "byteOffset": 35076, "byteLength": 288, "target": 34962}, {"buffer": 0, "byteOffset": 35364, "byteLength": 72, "target": 34963}, {"buffer": 0, "byteOffset": 35436, "byteLength": 3984, "target": 34962}, {"buffer": 0, "byteOffset": 39420, "byteLength": 3984, "target": 34962}, {"buffer": 0, "byteOffset": 43404, "byteLength": 2656, "target": 34962}, {"buffer": 0, "byteOffset": 46060, "byteLength": 1044, "target": 34963}, {"buffer": 0, "byteOffset": 47104, "byteLength": 288, "target": 34962}, {"buffer": 0, "byteOffset": 47392, "byteLength": 72, "target": 34963}, {"buffer": 0, "byteOffset": 47464, "byteLength": 792, "target": 34962}, {"buffer": 0, "byteOffset": 48256, "byteLength": 768, "target": 34963}, {"buffer": 0, "byteOffset": 49024, "byteLength": 288, "target": 34962}, {"buffer": 0, "byteOffset": 49312, "byteLength": 72, "target": 34963}, {"buffer": 0, "byteOffset": 49384, "byteLength": 288, "target": 34962}, {"buffer": 0, "byteOffset": 49672, "byteLength": 72, "target": 34963}, {"buffer": 0, "byteOffset": 49744, "byteLength": 288, "target": 34962}, {"buffer": 0, "byteOffset": 50032, "byteLength": 72, "target": 34963}, {"buffer": 0, "byteOffset": 50104, "byteLength": 288, "target": 34962}, {"buffer": 0, "byteOffset": 50392, "byteLength": 72, "target": 34963}, {"buffer": 0, "byteOffset": 50464, "byteLength": 288, "target": 34962}, {"buffer": 0, "byteOffset": 50752, "byteLength": 72, "target": 34963}, {"buffer": 0, "byteOffset": 50824, "byteLength": 288, "target": 34962}, {"buffer": 0, "byteOffset": 51112, "byteLength": 72, "target": 34963}, {"buffer": 0, "byteOffset": 51184, "byteLength": 288, "target": 34962}, {"buffer": 0, "byteOffset": 51472, "byteLength": 72, "target": 34963}, {"buffer": 0, "byteOffset": 51544, "byteLength": 7584, "target": 34962}, {"buffer": 0, "byteOffset": 59128, "byteLength": 7584, "target": 34962}, {"buffer": 0, "byteOffset": 66712, "byteLength": 5056, "target": 34962}, {"buffer": 0, "byteOffset": 71768, "byteLength": 1992, "target": 34963}, {"buffer": 0, "byteOffset": 73760, "byteLength": 288, "target": 34962}, {"buffer": 0, "byteOffset": 74048, "byteLength": 72, "target": 34963}, {"buffer": 0, "byteOffset": 74120, "byteLength": 4680, "target": 34962}, {"buffer": 0, "byteOffset": 78800, "byteLength": 4680, "target": 34962}, {"buffer": 0, "byteOffset": 83480, "byteLength": 3120, "target": 34962}, {"buffer": 0, "byteOffset": 86600, "byteLength": 1284, "target": 34963}, {"buffer": 0, "byteOffset": 87884, "byteLength": 734472, "target": 34962}, {"buffer": 0, "byteOffset": 822356, "byteLength": 734472, "target": 34962}, {"buffer": 0, "byteOffset": 1556828, "byteLength": 489648, "target": 34962}, {"buffer": 0, "byteOffset": 2046476, "byteLength": 720000, "target": 34963}, {"buffer": 0, "byteOffset": 2766476, "byteLength": 288, "target": 34962}, {"buffer": 0, "byteOffset": 2766764, "byteLength": 72, "target": 34963}, {"buffer": 0, "byteOffset": 2766836, "byteLength": 288, "target": 34962}, {"buffer": 0, "byteOffset": 2767124, "byteLength": 72, "target": 34963}, {"buffer": 0, "byteOffset": 2767196, "byteLength": 792, "target": 34962}, {"buffer": 0, "byteOffset": 2767988, "byteLength": 768, "target": 34963}, {"buffer": 0, "byteOffset": 2768756, "byteLength": 288, "target": 34962}, {"buffer": 0, "byteOffset": 2769044, "byteLength": 72, "target": 34963}, {"buffer": 0, "byteOffset": 2769116, "byteLength": 288, "target": 34962}, {"buffer": 0, "byteOffset": 2769404, "byteLength": 72, "target": 34963}, {"buffer": 0, "byteOffset": 2769476, "byteLength": 288, "target": 34962}, {"buffer": 0, "byteOffset": 2769764, "byteLength": 72, "target": 34963}, {"buffer": 0, "byteOffset": 2769836, "byteLength": 288, "target": 34962}, {"buffer": 0, "byteOffset": 2770124, "byteLength": 72, "target": 34963}, {"buffer": 0, "byteOffset": 2770196, "byteLength": 288, "target": 34962}, {"buffer": 0, "byteOffset": 2770484, "byteLength": 72, "target": 34963}, {"buffer": 0, "byteOffset": 2770556, "byteLength": 288, "target": 34962}, {"buffer": 0, "byteOffset": 2770844, "byteLength": 72, "target": 34963}, {"buffer": 0, "byteOffset": 2770916, "byteLength": 288, "target": 34962}, {"buffer": 0, "byteOffset": 2771204, "byteLength": 72, "target": 34963}, {"buffer": 0, "byteOffset": 2771276, "byteLength": 792, "target": 34962}, {"buffer": 0, "byteOffset": 2772068, "byteLength": 768, "target": 34963}, {"buffer": 0, "byteOffset": 2772836, "byteLength": 288, "target": 34962}, {"buffer": 0, "byteOffset": 2773124, "byteLength": 72, "target": 34963}, {"buffer": 0, "byteOffset": 2773196, "byteLength": 288, "target": 34962}, {"buffer": 0, "byteOffset": 2773484, "byteLength": 72, "target": 34963}, {"buffer": 0, "byteOffset": 2773556, "byteLength": 288, "target": 34962}, {"buffer": 0, "byteOffset": 2773844, "byteLength": 72, "target": 34963}, {"buffer": 0, "byteOffset": 2773916, "byteLength": 30576, "target": 34962}, {"buffer": 0, "byteOffset": 2804492, "byteLength": 30576, "target": 34962}, {"buffer": 0, "byteOffset": 2835068, "byteLength": 20384, "target": 34962}, {"buffer": 0, "byteOffset": 2855452, "byteLength": 10218, "target": 34963}, {"buffer": 0, "byteOffset": 2865672, "byteLength": 288, "target": 34962}, {"buffer": 0, "byteOffset": 2865960, "byteLength": 72, "target": 34963}, {"buffer": 0, "byteOffset": 2866032, "byteLength": 288, "target": 34962}, {"buffer": 0, "byteOffset": 2866320, "byteLength": 72, "target": 34963}, {"buffer": 0, "byteOffset": 2866392, "byteLength": 288, "target": 34962}, {"buffer": 0, "byteOffset": 2866680, "byteLength": 72, "target": 34963}, {"buffer": 0, "byteOffset": 2866752, "byteLength": 288, "target": 34962}, {"buffer": 0, "byteOffset": 2867040, "byteLength": 72, "target": 34963}, {"buffer": 0, "byteOffset": 2867112, "byteLength": 7176, "target": 34962}, {"buffer": 0, "byteOffset": 2874288, "byteLength": 7176, "target": 34962}, {"buffer": 0, "byteOffset": 2881464, "byteLength": 4784, "target": 34962}, {"buffer": 0, "byteOffset": 2886248, "byteLength": 2124, "target": 34963}, {"buffer": 0, "byteOffset": 2888372, "byteLength": 288, "target": 34962}, {"buffer": 0, "byteOffset": 2888660, "byteLength": 72, "target": 34963}, {"buffer": 0, "byteOffset": 2888732, "byteLength": 288, "target": 34962}, {"buffer": 0, "byteOffset": 2889020, "byteLength": 72, "target": 34963}, {"buffer": 0, "byteOffset": 2889092, "byteLength": 288, "target": 34962}, {"buffer": 0, "byteOffset": 2889380, "byteLength": 72, "target": 34963}, {"buffer": 0, "byteOffset": 2889452, "byteLength": 288, "target": 34962}, {"buffer": 0, "byteOffset": 2889740, "byteLength": 72, "target": 34963}, {"buffer": 0, "byteOffset": 2889812, "byteLength": 288, "target": 34962}, {"buffer": 0, "byteOffset": 2890100, "byteLength": 72, "target": 34963}, {"buffer": 0, "byteOffset": 2890172, "byteLength": 288, "target": 34962}, {"buffer": 0, "byteOffset": 2890460, "byteLength": 72, "target": 34963}, {"buffer": 0, "byteOffset": 2890532, "byteLength": 288, "target": 34962}, {"buffer": 0, "byteOffset": 2890820, "byteLength": 72, "target": 34963}, {"buffer": 0, "byteOffset": 2890892, "byteLength": 288, "target": 34962}, {"buffer": 0, "byteOffset": 2891180, "byteLength": 72, "target": 34963}, {"buffer": 0, "byteOffset": 2891252, "byteLength": 288, "target": 34962}, {"buffer": 0, "byteOffset": 2891540, "byteLength": 72, "target": 34963}, {"buffer": 0, "byteOffset": 2891612, "byteLength": 288, "target": 34962}, {"buffer": 0, "byteOffset": 2891900, "byteLength": 72, "target": 34963}, {"buffer": 0, "byteOffset": 2891972, "byteLength": 288, "target": 34962}, {"buffer": 0, "byteOffset": 2892260, "byteLength": 72, "target": 34963}, {"buffer": 0, "byteOffset": 2892332, "byteLength": 288, "target": 34962}, {"buffer": 0, "byteOffset": 2892620, "byteLength": 72, "target": 34963}, {"buffer": 0, "byteOffset": 2892692, "byteLength": 288, "target": 34962}, {"buffer": 0, "byteOffset": 2892980, "byteLength": 72, "target": 34963}, {"buffer": 0, "byteOffset": 2893052, "byteLength": 288, "target": 34962}, {"buffer": 0, "byteOffset": 2893340, "byteLength": 72, "target": 34963}, {"buffer": 0, "byteOffset": 2893412, "byteLength": 3396, "target": 34962}, {"buffer": 0, "byteOffset": 2896808, "byteLength": 3396, "target": 34962}, {"buffer": 0, "byteOffset": 2900204, "byteLength": 2264, "target": 34962}, {"buffer": 0, "byteOffset": 2902468, "byteLength": 906, "target": 34963}, {"buffer": 0, "byteOffset": 2903376, "byteLength": 288, "target": 34962}, {"buffer": 0, "byteOffset": 2903664, "byteLength": 72, "target": 34963}, {"buffer": 0, "byteOffset": 2903736, "byteLength": 288, "target": 34962}, {"buffer": 0, "byteOffset": 2904024, "byteLength": 72, "target": 34963}, {"buffer": 0, "byteOffset": 2904096, "byteLength": 4920, "target": 34962}, {"buffer": 0, "byteOffset": 2909016, "byteLength": 4920, "target": 34962}, {"buffer": 0, "byteOffset": 2913936, "byteLength": 3280, "target": 34962}, {"buffer": 0, "byteOffset": 2917216, "byteLength": 2772, "target": 34963}, {"buffer": 0, "byteOffset": 2919988, "byteLength": 35964, "target": 34962}, {"buffer": 0, "byteOffset": 2955952, "byteLength": 35964, "target": 34962}, {"buffer": 0, "byteOffset": 2991916, "byteLength": 23976, "target": 34962}, {"buffer": 0, "byteOffset": 3015892, "byteLength": 11406, "target": 34963}, {"buffer": 0, "byteOffset": 3027300, "byteLength": 65964, "target": 34962}, {"buffer": 0, "byteOffset": 3093264, "byteLength": 65964, "target": 34962}, {"buffer": 0, "byteOffset": 3159228, "byteLength": 43976, "target": 34962}, {"buffer": 0, "byteOffset": 3203204, "byteLength": 45630, "target": 34963}, {"buffer": 0, "byteOffset": 3248836, "byteLength": 5376, "target": 34962}, {"buffer": 0, "byteOffset": 3254212, "byteLength": 5376, "target": 34962}, {"buffer": 0, "byteOffset": 3259588, "byteLength": 3584, "target": 34962}, {"buffer": 0, "byteOffset": 3263172, "byteLength": 1344, "target": 34963}, {"buffer": 0, "byteOffset": 3264516, "byteLength": 47544, "target": 34962}, {"buffer": 0, "byteOffset": 3312060, "byteLength": 47544, "target": 34962}, {"buffer": 0, "byteOffset": 3359604, "byteLength": 31696, "target": 34962}, {"buffer": 0, "byteOffset": 3391300, "byteLength": 13644, "target": 34963}, {"buffer": 0, "byteOffset": 3404944, "byteLength": 66888, "target": 34962}, {"buffer": 0, "byteOffset": 3471832, "byteLength": 66888, "target": 34962}, {"buffer": 0, "byteOffset": 3538720, "byteLength": 44592, "target": 34962}, {"buffer": 0, "byteOffset": 3583312, "byteLength": 45630, "target": 34963}, {"buffer": 0, "byteOffset": 3628944, "byteLength": 66516, "target": 34962}, {"buffer": 0, "byteOffset": 3695460, "byteLength": 66516, "target": 34962}, {"buffer": 0, "byteOffset": 3761976, "byteLength": 44344, "target": 34962}, {"buffer": 0, "byteOffset": 3806320, "byteLength": 45630, "target": 34963}, {"buffer": 0, "byteOffset": 3851952, "byteLength": 620088, "target": 34962}, {"buffer": 0, "byteOffset": 4472040, "byteLength": 620088, "target": 34962}, {"buffer": 0, "byteOffset": 5092128, "byteLength": 413392, "target": 34962}, {"buffer": 0, "byteOffset": 5505520, "byteLength": 158412, "target": 34963}, {"buffer": 0, "byteOffset": 5663932, "byteLength": 2304, "target": 34962}, {"buffer": 0, "byteOffset": 5666236, "byteLength": 2304, "target": 34962}, {"buffer": 0, "byteOffset": 5668540, "byteLength": 1536, "target": 34962}, {"buffer": 0, "byteOffset": 5670076, "byteLength": 744, "target": 34963}, {"buffer": 0, "byteOffset": 5670820, "byteLength": 1920, "target": 34962}, {"buffer": 0, "byteOffset": 5672740, "byteLength": 1920, "target": 34962}, {"buffer": 0, "byteOffset": 5674660, "byteLength": 1280, "target": 34962}, {"buffer": 0, "byteOffset": 5675940, "byteLength": 480, "target": 34963}, {"buffer": 0, "byteOffset": 5676420, "byteLength": 1632, "target": 34962}, {"buffer": 0, "byteOffset": 5678052, "byteLength": 1632, "target": 34962}, {"buffer": 0, "byteOffset": 5679684, "byteLength": 1088, "target": 34962}, {"buffer": 0, "byteOffset": 5680772, "byteLength": 432, "target": 34963}, {"buffer": 0, "byteOffset": 5681204, "byteLength": 3396, "target": 34962}, {"buffer": 0, "byteOffset": 5684600, "byteLength": 3396, "target": 34962}, {"buffer": 0, "byteOffset": 5687996, "byteLength": 2264, "target": 34962}, {"buffer": 0, "byteOffset": 5690260, "byteLength": 930, "target": 34963}], "buffers": [{"byteLength": 5691192, "uri": "city.bin"}], "images": [{"uri": "textures/City_Buildingcomplex_B.png"}, {"uri": "textures/City_mountainrange_B.png"}, {"uri": "textures/City_Surface_B.png"}], "textures": [{"source": 0}, {"source": 1}, {"source": 2}]}